<svg xmlns="http://www.w3.org/2000/svg" viewBox="0 0 100 100" role="img" aria-label="Dadaki">
  <title>Dadaki</title>
  <defs>
    <linearGradient id="dadaki-favicon-tile" x1="0" y1="0" x2="0" y2="100" gradientUnits="userSpaceOnUse">
      <stop stop-color="#242424"/>
      <stop offset="1" stop-color="#141414"/>
    </linearGradient>
  </defs>
  <!-- Rounded tile: dark gradient with a hairline light edge. -->
  <rect x="1" y="1" width="98" height="98" rx="22" fill="url(#dadaki-favicon-tile)" stroke="#ffffff" stroke-opacity="0.14" stroke-width="1.5"/>
  <!-- Paper-boat mark, turned 45° so the hull spans the tile's diagonal: it
       reads far better than the flat version at favicon sizes. Keep in sync
       with the cloud app's public/logo.svg. -->
  <g transform="matrix(1.009840965270996,-1.009840965270996,1.0098412036895752,1.0098412036895752,-9.22311782836914,67.52949523925781)" fill="none" stroke="#f4f4f4" stroke-width="2.2" stroke-linejoin="round" stroke-linecap="round">
    <g transform="matrix(1,0,0,1,56.74146270751953,26.873029708862305)"><path d="M 18.738998 -7.861019 C 20.230133 -9.813702 18.247871 -12.500114 15.946075 -11.648037 C 15.946075 -11.648037 -4.670685 -4.387615 -4.670685 -4.387615 C -4.670685 -4.387615 -18.744904 1.2245064 -18.744904 1.2245064 C -18.744904 1.2245064 3.4666672 11.648037 3.4666672 11.648037 C 3.8039474 11.482349 4.111641 11.251583 4.3483276 10.943882 C 4.3483276 10.943882 4.981468 10.115475 4.981468 10.115475 C 4.981468 10.115475 18.744911 -7.861019 18.744911 -7.861019 C 18.744911 -7.861019 18.738998 -7.861019 18.738998 -7.861019 Z" /></g><g transform="matrix(1,0,0,1,19.2675724029541,26.87006950378418)"><path d="M 4.4005737 -4.384655 C 4.4005737 -4.384655 -15.953283 -11.645077 -15.953283 -11.645077 C -18.255081 -12.497154 -20.243265 -9.810741 -18.752127 -7.858059 C -18.752127 -7.858059 -4.355543 10.940929 -4.355543 10.940929 C -4.1188545 11.248623 -3.8170757 11.479397 -3.473877 11.645077 C -3.473877 11.645077 -2.995945 11.591824 -2.995945 11.591824 C -2.995945 11.591824 18.752129 1.2251587 18.752129 1.2251587 C 18.752129 1.2251587 4.4005737 -4.384655 4.4005737 -4.384655 Z" /></g><g transform="matrix(1,0,0,1,61.30278778076172,18.817781448364258)"><path d="M -9.04097 3.592785 C -9.04097 3.592785 11.37883 -3.5927887 11.37883 -3.5927887 C 11.37883 -3.5927887 -11.398457 -0.45887756 -11.378834 -0.47995758 Z" /></g><g transform="matrix(1,0,0,1,14.650032043457031,18.889307022094727)"><path d="M 11.335749 -0.37877655 C 11.335749 -0.37877655 -11.33575 -3.6643143 -11.33575 -3.6643143 C -11.33575 -3.6643143 9.0574665 3.733799 9.08959 3.6643105 Z" /></g><g transform="matrix(1,0,0,1,49.074920654296875,34.692626953125)"><path d="M -11.073921 -6.597698 C -11.073921 -6.597698 -11.127293 2.8606186 -11.127293 2.8606186 C -11.127293 2.8606186 -11.073921 6.5976944 -11.073921 6.5976944 C -11.073921 6.5976944 10.352135 4.0651245 10.352135 4.0651245 C 10.624329 4.0355377 10.884682 3.946785 11.127289 3.8284378 C 11.127289 3.8284378 3.831543 0.40236664 3.831543 0.40236664 C 3.831543 0.40236664 -11.073921 -6.597698 -11.073921 -6.597698 Z" /></g><g transform="matrix(1,0,0,1,26.90326499938965,34.68670654296875)"><path d="M 11.097736 -6.591774 C 11.097736 -6.591774 -11.103653 3.8284378 -11.103653 3.8284378 C -10.861048 3.946785 -10.600689 4.0355453 -10.32258 4.0651245 C -10.32258 4.0651245 11.103653 6.5976944 11.103653 6.5976944 C 11.103653 6.5976944 11.103653 -6.5976906 11.103653 -6.5976906 C 11.103653 -6.5976906 11.097736 -6.591774 11.097736 -6.591774 Z" /></g><g transform="matrix(1,0,0,1,45.025550842285156,14.05223274230957)"><path d="M 7.190544 8.365532 C 7.190544 8.365532 5.0228386 4.4864006 5.0228386 4.4864006 C 5.0228386 4.4864006 -4.2612724 -12.413162 -4.2612724 -12.413162 C -4.8589096 -13.507847 -5.941761 -14.052231 -7.0246124 -14.052231 C -7.0246124 -14.052231 -7.228874 -0.051570892 -7.228874 -0.051570892 C -7.228874 -0.051570892 -7.0246124 14.052227 -7.0246124 14.052227 C -7.0246124 14.052227 7.228874 8.365532 7.228874 8.365532 Z" /></g><g transform="matrix(1,0,0,1,30.88216209411621,14.047468185424805)"><path d="M 7.1188965 14.047466 C 7.1188965 14.047466 7.1188965 -14.047468 7.1188965 -14.047468 C 6.036049 -14.047468 4.9531975 -13.503084 4.3555603 -12.414316 C 4.3555603 -12.414316 2.195778 -8.47937 2.195778 -8.47937 C 2.195778 -8.47937 -3.8042793 2.4438095 -3.8042793 2.4438095 C -3.8042793 2.4438095 -4.881855 4.4738884 -4.881855 4.4738884 C -4.881855 4.4738884 -7.1110077 8.4982605 -7.1188965 8.506149 Z" /></g>
  </g>
</svg>
